0
SECTION
2
HEADER
9
$INSUNITS
70
4
9
$ACADVER
1
AC1014
9
$HANDSEED
5
FFFF
0
ENDSEC
0
SECTION
2
TABLES
0
TABLE
2
VPORT
5
8
100
AcDbSymbolTable
0
ENDTAB
0
TABLE
2
LTYPE
5
5
100
AcDbSymbolTable
0
LTYPE
5
14
100
AcDbSymbolTableRecord
100
AcDbLinetypeTableRecord
2
BYBLOCK
70
0
0
LTYPE
5
15
100
AcDbSymbolTableRecord
100
AcDbLinetypeTableRecord
2
BYLAYER
70
0
0
ENDTAB
0
TABLE
2
LAYER
5
2
100
AcDbSymbolTable
70
2
0
LAYER
5
50
100
AcDbSymbolTableRecord
100
AcDbLayerTableRecord
2
0
70
0
6
CONTINUOUS
0
ENDTAB
0
TABLE
2
STYLE
5
3
100
AcDbSymbolTable
70
1
0
STYLE
5
11
100
AcDbSymbolTableRecord
100
AcDbTextStyleTableRecord
2
STANDARD
70
0
0
ENDTAB
0
TABLE
2
VIEW
5
6
100
AcDbSymbolTable
70
0
0
ENDTAB
0
TABLE
2
UCS
5
7
100
AcDbSymbolTable
70
0
0
ENDTAB
0
TABLE
2
APPID
5
9
100
AcDbSymbolTable
70
2
0
APPID
5
12
100
AcDbSymbolTableRecord
100
AcDbRegAppTableRecord
2
ACAD
70
0
0
ENDTAB
0
TABLE
2
DIMSTYLE
5
A
100
AcDbSymbolTable
70
1
0
ENDTAB
0
TABLE
2
BLOCK_RECORD
5
1
100
AcDbSymbolTable
70
1
0
BLOCK_RECORD
5
1F
100
AcDbSymbolTableRecord
100
AcDbBlockTableRecord
2
*MODEL_SPACE
0
BLOCK_RECORD
5
1B
100
AcDbSymbolTableRecord
100
AcDbBlockTableRecord
2
*PAPER_SPACE
0
ENDTAB
0
ENDSEC
0
SECTION
2
BLOCKS
0
BLOCK
5
20
100
AcDbEntity
100
AcDbBlockBegin
2
*MODEL_SPACE
0
ENDBLK
5
21
100
AcDbEntity
100
AcDbBlockEnd
0
BLOCK
5
1C
100
AcDbEntity
100
AcDbBlockBegin
2
*PAPER_SPACE
0
ENDBLK
5
1D
100
AcDbEntity
100
AcDbBlockEnd
0
ENDSEC
0
SECTION
2
ENTITIES
0
LWPOLYLINE
5
100
100
AcDbEntity
8
0
100
AcDbPolyline
90
68
70
1
43
0.0
10
19.950000000000003
20
0
10
19.950000000000003
20
3.0000000000000004
10
10.050000000000001
20
3.0000000000000062
10
10.050000000000001
20
0
10
0
20
0
10
-2.220446058556095e-15
20
3.0500000000000007
10
2.9999999999999982
20
3.0499997019767786
10
2.9999999999999494
20
12.950000000000001
10
1.104698145986067e-17
20
12.950000000000001
10
-2.220446058556095e-15
20
23.050000000000001
10
2.9999999999999982
20
23.049999701976777
10
2.9999999999999494
20
32.950000000000003
10
1.104698145986067e-17
20
32.950000000000003
10
-2.220446058556095e-15
20
43.049999999999997
10
2.9999999999999982
20
43.04999970197678
10
2.9999999999999494
20
52.950000000000003
10
1.104698145986067e-17
20
52.950000000000003
10
-2.220446058556095e-15
20
63.049999999999997
10
2.9999999999999982
20
63.04999970197678
10
2.9999999999999494
20
72.950000000000003
10
1.104698145986067e-17
20
72.950000000000003
10
0
20
76
10
10.050000000000001
20
76
10
10.050000000000001
20
73
10
19.950000000000003
20
73
10
19.950000000000003
20
76
10
30.049999999999997
20
76
10
30.049999999999997
20
73
10
39.950000000000003
20
73
10
39.950000000000003
20
76
10
50.049999999999997
20
76
10
50.049999999999997
20
73
10
59.950000000000003
20
73
10
59.950000000000003
20
76
10
70.049999999999997
20
76
10
70.049999999999997
20
73
10
79.950000000000003
20
73
10
79.950000000000003
20
76
10
89.999999955296516
20
76
10
89.999999955296516
20
72.950000000000003
10
86.999999955296545
20
72.950000000000003
10
86.999999955296545
20
63.04999970197678
10
89.999999955296545
20
63.049999999999997
10
89.999999955296516
20
52.950000000000003
10
86.999999955296573
20
52.950000000000003
10
86.999999955296545
20
43.04999970197678
10
89.999999955296545
20
43.049999999999997
10
89.999999955296516
20
32.950000000000003
10
86.999999955296573
20
32.950000000000003
10
86.999999955296545
20
23.049999701976777
10
89.999999955296545
20
23.050000000000001
10
89.999999955296516
20
12.950000000000001
10
86.999999955296573
20
12.950000000000001
10
86.999999955296545
20
3.0499997019767786
10
89.999999955296516
20
3.0500000000000007
10
89.999999955296516
20
0
10
79.950000000000003
20
0
10
79.950000000000003
20
3.0000000000000004
10
70.049999999999997
20
3.0000000000000062
10
70.049999999999997
20
0
10
59.950000000000003
20
0
10
59.950000000000003
20
3.0000000000000004
10
50.049999999999997
20
3.0000000000000062
10
50.049999999999997
20
0
10
39.950000000000003
20
0
10
39.950000000000003
20
3.0000000000000004
10
30.049999999999997
20
3.0000000000000062
10
30.049999999999997
20
0
0
LINE
5
101
100
AcDbEntity
8
0
100
AcDbLine
10
-2.220446058556095e-15
20
23.050000000000001
30
0
11
2.9999999999999982
21
23.049999701976777
31
0
0
LINE
5
102
100
AcDbEntity
8
0
100
AcDbLine
10
2.9999999999999494
20
72.950000000000003
30
0
11
1.104698145986067e-17
21
72.950000000000003
31
0
0
LWPOLYLINE
5
103
100
AcDbEntity
8
0
100
AcDbPolyline
90
4
70
1
43
0.0
10
13
20
60.500000000000007
10
33
20
60.500000000000007
10
33
20
15.499999999999998
10
13
20
15.499999999999998
0
LWPOLYLINE
5
104
100
AcDbEntity
8
0
100
AcDbPolyline
90
52
70
1
43
0.0
10
9.9499999999999993
20
100
10
9.9499999999999993
20
97
10
20.049999999999997
20
97
10
20.049999999999997
20
100
10
29.950000000000003
20
100
10
29.950000000000003
20
97
10
40.049999999999997
20
97
10
40.049999999999997
20
100
10
49.950000000000003
20
100
10
49.950000000000003
20
97
10
60.049999999999997
20
97
10
60.049999999999997
20
100
10
69.950000000000003
20
100
10
69.950000000000003
20
97
10
80.049999999999983
20
97
10
80.049999999999983
20
100
10
90
20
100
10
90
20
107.05
10
87
20
107.05
10
87
20
116.95
10
90
20
116.95
10
90
20
127.05
10
87
20
127.05
10
87
20
136.94999999999999
10
90
20
136.94999999999999
10
90
20
144
10
80.049999999999983
20
144.00000000000011
10
80.049999999999983
20
147.00000000000014
10
69.950000000000003
20
147
10
69.950000000000003
20
144
10
60.049999999999997
20
144.00000000000011
10
60.049999999999997
20
147.00000000000014
10
49.950000000000003
20
147
10
49.950000000000003
20
144
10
40.049999999999997
20
144.00000000000011
10
40.049999999999997
20
147.00000000000014
10
29.950000000000003
20
147
10
29.950000000000003
20
144
10
20.049999999999997
20
144.00000000000011
10
20.049999999999997
20
147.00000000000014
10
9.9500000000000011
20
147
10
9.9499999999999993
20
144.00000000000011
10
0
20
144
10
0
20
136.94999999999999
10
3.0000000000000004
20
136.94999999999999
10
3.0000000000000004
20
127.05
10
0
20
127.05
10
0
20
116.95
10
3.0000000000000004
20
116.95
10
3.0000000000000004
20
107.05
10
0
20
107.05
10
0
20
100
0
LWPOLYLINE
5
105
100
AcDbEntity
8
0
100
AcDbPolyline
90
44
70
1
43
0.0
10
124.94999999999999
20
0.09909437128463594
10
124.94999999999999
20
-2.9009056287153645
10
135.04999999999998
20
-2.9009056287153623
10
135.04999999999998
20
0.09909437128463594
10
144.94999999999999
20
0.09909437128463594
10
144.94999999999999
20
-2.9009056287153645
10
155.04999999999998
20
-2.9009056287153623
10
155.04999999999998
20
0.09909437128463594
10
165
20
0.09909437128463594
10
165
20
10.149094371284637
10
162
20
10.149094371284637
10
162
20
20.049094371284639
10
165
20
20.049094371284639
10
165
20
30.149094371284633
10
162
20
30.149094371284633
10
162
20
40.049094371284639
10
165
20
40.049094371284639
10
165
20
50.149094371284633
10
162
20
50.149094371284633
10
162
20
60.049094371284639
10
165
20
60.049094371284639
10
165
20
70.099094371284636
10
155.04999999999998
20
70.099094371284636
10
155.04999999999998
20
73.09909437128465
10
144.94999999999999
20
73.09909437128465
10
144.94999999999999
20
70.099094371284636
10
135.04999999999998
20
70.099094371284636
10
135.04999999999998
20
73.09909437128465
10
124.94999999999999
20
73.09909437128465
10
124.94999999999999
20
70.099094371284636
10
115
20
70.099094371284636
10
115
20
60.049094371284639
10
118
20
60.049094371284639
10
118
20
50.149094371284633
10
115
20
50.149094371284633
10
115
20
40.049094371284639
10
118
20
40.049094371284639
10
118
20
30.149094371284633
10
115
20
30.149094371284633
10
115
20
20.049094371284639
10
118
20
20.049094371284639
10
118
20
10.149094371284637
10
115
20
10.149094371284637
10
115
20
0.09909437128463594
0
LINE
5
106
100
AcDbEntity
8
0
100
AcDbLine
10
165
20
0.09909437128463594
30
0
11
165
21
10.149094371284637
31
0
0
LINE
5
107
100
AcDbEntity
8
0
100
AcDbLine
10
165
20
50.149094371284633
30
0
11
165
21
40.049094371284639
31
0
0
LINE
5
108
100
AcDbEntity
8
0
100
AcDbLine
10
165
20
20.049094371284639
30
0
11
165
21
30.149094371284633
31
0
0
LINE
5
109
100
AcDbEntity
8
0
100
AcDbLine
10
165
20
60.049094371284639
30
0
11
165
21
70.099094371284636
31
0
0
LINE
5
110
100
AcDbEntity
8
0
100
AcDbLine
10
135.04999999999998
20
70.099094371284636
30
0
11
144.94999999999999
21
70.099094371284636
31
0
0
LINE
5
111
100
AcDbEntity
8
0
100
AcDbLine
10
124.94999999999999
20
70.099094371284636
30
0
11
115
21
70.099094371284636
31
0
0
LINE
5
112
100
AcDbEntity
8
0
100
AcDbLine
10
165
20
70.099094371284636
30
0
11
155.04999999999998
21
70.099094371284636
31
0
0
LWPOLYLINE
5
113
100
AcDbEntity
8
0
100
AcDbPolyline
90
4
70
1
43
0.0
10
128
20
45.099094371284636
10
136
20
45.099094371284636
10
136
20
25.099094371284636
10
128
20
25.099094371284636
0
LWPOLYLINE
5
114
100
AcDbEntity
8
0
100
AcDbPolyline
90
4
70
1
43
0.0
10
-125.87821809658351
20
116.40593778883918
10
-25.87821809658351
20
116.40593778883918
10
-25.87821809658351
20
100.40593778883918
10
-125.87821809658351
20
100.40593778883918
0
LWPOLYLINE
5
115
100
AcDbEntity
8
0
100
AcDbPolyline
90
44
70
1
43
0.0
10
118
20
30.149094371284633
10
118
20
40.049094371284639
10
115
20
40.049094371284639
10
115
20
50.149094371284633
10
118
20
50.149094371284633
10
118
20
60.049094371284639
10
115
20
60.049094371284639
10
115
20
70.099094371284636
10
124.94999999999999
20
70.099094371284636
10
124.94999999999999
20
73.09909437128465
10
135.04999999999998
20
73.09909437128465
10
135.04999999999998
20
70.099094371284636
10
144.94999999999999
20
70.099094371284636
10
144.94999999999999
20
73.09909437128465
10
155.04999999999998
20
73.09909437128465
10
155.04999999999998
20
70.099094371284636
10
165
20
70.099094371284636
10
165
20
60.049094371284639
10
162
20
60.049094371284639
10
162
20
50.149094371284633
10
165
20
50.149094371284633
10
165
20
40.049094371284639
10
162
20
40.049094371284639
10
162
20
30.149094371284633
10
165
20
30.149094371284633
10
165
20
20.049094371284639
10
162
20
20.049094371284639
10
162
20
10.149094371284637
10
165
20
10.149094371284637
10
165
20
0.09909437128463594
10
155.04999999999998
20
0.09909437128463594
10
155.04999999999998
20
-2.9009056287153623
10
144.94999999999999
20
-2.9009056287153645
10
144.94999999999999
20
0.09909437128463594
10
135.04999999999998
20
0.09909437128463594
10
135.04999999999998
20
-2.9009056287153623
10
124.94999999999999
20
-2.9009056287153645
10
124.94999999999999
20
0.09909437128463594
10
115
20
0.09909437128463594
10
115
20
10.149094371284637
10
118
20
10.149094371284637
10
118
20
20.049094371284639
10
115
20
20.049094371284639
10
115
20
30.149094371284633
0
LINE
5
116
100
AcDbEntity
8
0
100
AcDbLine
10
165
20
70.099094371284636
30
0
11
155.04999999999998
21
70.099094371284636
31
0
0
LINE
5
117
100
AcDbEntity
8
0
100
AcDbLine
10
165
20
0.09909437128463594
30
0
11
165
21
10.149094371284637
31
0
0
LINE
5
118
100
AcDbEntity
8
0
100
AcDbLine
10
165
20
30.149094371284633
30
0
11
165
21
20.049094371284639
31
0
0
LINE
5
119
100
AcDbEntity
8
0
100
AcDbLine
10
165
20
60.049094371284639
30
0
11
165
21
70.099094371284636
31
0
0
LWPOLYLINE
5
120
100
AcDbEntity
8
0
100
AcDbPolyline
90
4
70
1
43
0.0
10
128
20
45.099094371284636
10
136
20
45.099094371284636
10
136
20
25.099094371284636
10
128
20
25.099094371284636
0
LINE
5
121
100
AcDbEntity
8
0
100
AcDbLine
10
135.04999999999998
20
70.099094371284636
30
0
11
144.94999999999999
21
70.099094371284636
31
0
0
LINE
5
122
100
AcDbEntity
8
0
100
AcDbLine
10
165
20
50.149094371284633
30
0
11
165
21
40.049094371284639
31
0
0
LINE
5
123
100
AcDbEntity
8
0
100
AcDbLine
10
124.94999999999999
20
70.099094371284636
30
0
11
115
21
70.099094371284636
31
0
0
LWPOLYLINE
5
124
100
AcDbEntity
8
0
100
AcDbPolyline
90
44
70
1
43
0.0
10
115
20
60.049094371284639
10
115
20
70.099094371284636
10
124.94999999999999
20
70.099094371284636
10
124.94999999999999
20
73.09909437128465
10
135.04999999999998
20
73.09909437128465
10
135.04999999999998
20
70.099094371284636
10
144.94999999999999
20
70.099094371284636
10
144.94999999999999
20
73.09909437128465
10
155.04999999999998
20
73.09909437128465
10
155.04999999999998
20
70.099094371284636
10
165
20
70.099094371284636
10
165
20
60.049094371284639
10
162
20
60.049094371284639
10
162
20
50.149094371284633
10
165
20
50.149094371284633
10
165
20
40.049094371284639
10
162
20
40.049094371284639
10
162
20
30.149094371284633
10
165
20
30.149094371284633
10
165
20
20.049094371284639
10
162
20
20.049094371284639
10
162
20
10.149094371284637
10
165
20
10.149094371284637
10
165
20
0.09909437128463594
10
155.04999999999998
20
0.09909437128463594
10
155.04999999999998
20
-2.9009056287153623
10
144.94999999999999
20
-2.9009056287153645
10
144.94999999999999
20
0.09909437128463594
10
135.04999999999998
20
0.09909437128463594
10
135.04999999999998
20
-2.9009056287153623
10
124.94999999999999
20
-2.9009056287153645
10
124.94999999999999
20
0.09909437128463594
10
115
20
0.09909437128463594
10
115
20
10.149094371284637
10
118
20
10.149094371284637
10
118
20
20.049094371284639
10
115
20
20.049094371284639
10
115
20
30.149094371284633
10
118
20
30.149094371284633
10
118
20
40.049094371284639
10
115
20
40.049094371284639
10
115
20
50.149094371284633
10
118
20
50.149094371284633
10
118
20
60.049094371284639
0
LWPOLYLINE
5
125
100
AcDbEntity
8
0
100
AcDbPolyline
90
44
70
1
43
0.0
10
165
20
10.149094371284637
10
162
20
10.149094371284637
10
162
20
20.049094371284639
10
165
20
20.049094371284639
10
165
20
30.149094371284633
10
162
20
30.149094371284633
10
162
20
40.049094371284639
10
165
20
40.049094371284639
10
165
20
50.149094371284633
10
162
20
50.149094371284633
10
162
20
60.049094371284639
10
165
20
60.049094371284639
10
165
20
70.099094371284636
10
155.04999999999998
20
70.099094371284636
10
155.04999999999998
20
73.09909437128465
10
144.94999999999999
20
73.09909437128465
10
144.94999999999999
20
70.099094371284636
10
135.04999999999998
20
70.099094371284636
10
135.04999999999998
20
73.09909437128465
10
124.94999999999999
20
73.09909437128465
10
124.94999999999999
20
70.099094371284636
10
115
20
70.099094371284636
10
115
20
60.049094371284639
10
118
20
60.049094371284639
10
118
20
50.149094371284633
10
115
20
50.149094371284633
10
115
20
40.049094371284639
10
118
20
40.049094371284639
10
118
20
30.149094371284633
10
115
20
30.149094371284633
10
115
20
20.049094371284639
10
118
20
20.049094371284639
10
118
20
10.149094371284637
10
115
20
10.149094371284637
10
115
20
0.09909437128463594
10
124.94999999999999
20
0.09909437128463594
10
124.94999999999999
20
-2.9009056287153645
10
135.04999999999998
20
-2.9009056287153623
10
135.04999999999998
20
0.09909437128463594
10
144.94999999999999
20
0.09909437128463594
10
144.94999999999999
20
-2.9009056287153645
10
155.04999999999998
20
-2.9009056287153623
10
155.04999999999998
20
0.09909437128463594
10
165
20
0.09909437128463594
0
LINE
5
126
100
AcDbEntity
8
0
100
AcDbLine
10
165
20
50.149094371284633
30
0
11
165
21
40.049094371284639
31
0
0
LINE
5
127
100
AcDbEntity
8
0
100
AcDbLine
10
165
20
0.09909437128463594
30
0
11
165
21
10.149094371284637
31
0
0
LINE
5
128
100
AcDbEntity
8
0
100
AcDbLine
10
165
20
30.149094371284633
30
0
11
165
21
20.049094371284639
31
0
0
LINE
5
129
100
AcDbEntity
8
0
100
AcDbLine
10
165
20
60.049094371284639
30
0
11
165
21
70.099094371284636
31
0
0
LINE
5
130
100
AcDbEntity
8
0
100
AcDbLine
10
165
20
0.09909437128463594
30
0
11
165
21
10.149094371284637
31
0
0
LINE
5
131
100
AcDbEntity
8
0
100
AcDbLine
10
144.94999999999999
20
70.099094371284636
30
0
11
135.04999999999998
21
70.099094371284636
31
0
0
LWPOLYLINE
5
132
100
AcDbEntity
8
0
100
AcDbPolyline
90
4
70
1
43
0.0
10
136
20
45.099094371284636
10
136
20
25.099094371284636
10
128
20
25.099094371284636
10
128
20
45.099094371284636
0
LWPOLYLINE
5
133
100
AcDbEntity
8
0
100
AcDbPolyline
90
4
70
1
43
0.0
10
136
20
25.099094371284636
10
128
20
25.099094371284636
10
128
20
45.099094371284636
10
136
20
45.099094371284636
0
LINE
5
134
100
AcDbEntity
8
0
100
AcDbLine
10
165
20
60.049094371284639
30
0
11
165
21
70.099094371284636
31
0
0
LINE
5
135
100
AcDbEntity
8
0
100
AcDbLine
10
165
20
40.049094371284639
30
0
11
165
21
50.149094371284633
31
0
0
LINE
5
136
100
AcDbEntity
8
0
100
AcDbLine
10
165
20
30.149094371284633
30
0
11
165
21
20.049094371284639
31
0
0
LINE
5
137
100
AcDbEntity
8
0
100
AcDbLine
10
144.94999999999999
20
70.099094371284636
30
0
11
135.04999999999998
21
70.099094371284636
31
0
0
LINE
5
138
100
AcDbEntity
8
0
100
AcDbLine
10
165
20
70.099094371284636
30
0
11
155.04999999999998
21
70.099094371284636
31
0
0
LINE
5
139
100
AcDbEntity
8
0
100
AcDbLine
10
165
20
70.099094371284636
30
0
11
155.04999999999998
21
70.099094371284636
31
0
0
LINE
5
140
100
AcDbEntity
8
0
100
AcDbLine
10
124.94999999999999
20
70.099094371284636
30
0
11
115
21
70.099094371284636
31
0
0
LINE
5
141
100
AcDbEntity
8
0
100
AcDbLine
10
124.94999999999999
20
70.099094371284636
30
0
11
115
21
70.099094371284636
31
0
0
LWPOLYLINE
5
142
100
AcDbEntity
8
0
100
AcDbPolyline
90
4
70
1
43
0.0
10
-61.999999999999993
20
25.099094371284636
10
-61.999999999999993
20
45.099094371284636
10
-53.999999999999986
20
45.099094371284636
10
-53.999999999999986
20
25.099094371284636
0
LWPOLYLINE
5
143
100
AcDbEntity
8
0
100
AcDbPolyline
90
44
70
1
43
0.0
10
-28.000000000000007
20
30.149094371284633
10
-28.000000000000007
20
40.049094371284639
10
-25
20
40.049094371284639
10
-25
20
50.149094371284633
10
-28.000000000000007
20
50.149094371284633
10
-28.000000000000007
20
60.049094371284639
10
-25
20
60.049094371284639
10
-25
20
70.099094371284636
10
-34.95000000000001
20
70.099094371284636
10
-34.95000000000001
20
73.09909437128465
10
-45.050000000000026
20
73.09909437128465
10
-45.050000000000026
20
70.099094371284636
10
-54.95000000000001
20
70.099094371284636
10
-54.95000000000001
20
73.09909437128465
10
-65.050000000000011
20
73.09909437128465
10
-65.050000000000011
20
70.099094371284636
10
-75
20
70.099094371284636
10
-75
20
60.049094371284639
10
-72
20
60.049094371284639
10
-72
20
50.149094371284633
10
-75
20
50.149094371284633
10
-75
20
40.049094371284639
10
-72
20
40.049094371284639
10
-72
20
30.149094371284633
10
-75
20
30.149094371284633
10
-75
20
20.049094371284639
10
-72
20
20.049094371284639
10
-72
20
10.149094371284637
10
-75
20
10.149094371284637
10
-75
20
0.09909437128463594
10
-65.050000000000011
20
0.09909437128463594
10
-65.050000000000011
20
-2.9009056287153645
10
-54.95000000000001
20
-2.9009056287153623
10
-54.95000000000001
20
0.09909437128463594
10
-45.050000000000026
20
0.09909437128463594
10
-45.050000000000026
20
-2.9009056287153645
10
-34.95000000000001
20
-2.9009056287153623
10
-34.95000000000001
20
0.09909437128463594
10
-25
20
0.09909437128463594
10
-25
20
10.149094371284637
10
-28.000000000000007
20
10.149094371284637
10
-28.000000000000007
20
20.049094371284639
10
-25
20
20.049094371284639
10
-25
20
30.149094371284633
0
LWPOLYLINE
5
144
100
AcDbEntity
8
0
100
AcDbPolyline
90
4
70
1
43
0.0
10
-53.999999999999986
20
45.099094371284636
10
-53.999999999999986
20
25.099094371284636
10
-61.999999999999993
20
25.099094371284636
10
-61.999999999999993
20
45.099094371284636
0
LWPOLYLINE
5
145
100
AcDbEntity
8
0
100
AcDbPolyline
90
44
70
1
43
0.0
10
-28.000000000000007
20
30.149094371284633
10
-28.000000000000007
20
40.049094371284639
10
-25
20
40.049094371284639
10
-25
20
50.149094371284633
10
-28.000000000000007
20
50.149094371284633
10
-28.000000000000007
20
60.049094371284639
10
-25
20
60.049094371284639
10
-25
20
70.099094371284636
10
-34.95000000000001
20
70.099094371284636
10
-34.95000000000001
20
73.09909437128465
10
-45.050000000000026
20
73.09909437128465
10
-45.050000000000026
20
70.099094371284636
10
-54.95000000000001
20
70.099094371284636
10
-54.95000000000001
20
73.09909437128465
10
-65.050000000000011
20
73.09909437128465
10
-65.050000000000011
20
70.099094371284636
10
-75
20
70.099094371284636
10
-75
20
60.049094371284639
10
-72
20
60.049094371284639
10
-72
20
50.149094371284633
10
-75
20
50.149094371284633
10
-75
20
40.049094371284639
10
-72
20
40.049094371284639
10
-72
20
30.149094371284633
10
-75
20
30.149094371284633
10
-75
20
20.049094371284639
10
-72
20
20.049094371284639
10
-72
20
10.149094371284637
10
-75
20
10.149094371284637
10
-75
20
0.09909437128463594
10
-65.050000000000011
20
0.09909437128463594
10
-65.050000000000011
20
-2.9009056287153645
10
-54.95000000000001
20
-2.9009056287153623
10
-54.95000000000001
20
0.09909437128463594
10
-45.050000000000026
20
0.09909437128463594
10
-45.050000000000026
20
-2.9009056287153645
10
-34.95000000000001
20
-2.9009056287153623
10
-34.95000000000001
20
0.09909437128463594
10
-25
20
0.09909437128463594
10
-25
20
10.149094371284637
10
-28.000000000000007
20
10.149094371284637
10
-28.000000000000007
20
20.049094371284639
10
-25
20
20.049094371284639
10
-25
20
30.149094371284633
0
LWPOLYLINE
5
146
100
AcDbEntity
8
0
100
AcDbPolyline
90
4
70
1
43
0.0
10
-61.999999999999993
20
25.099094371284636
10
-61.999999999999993
20
45.099094371284636
10
-53.999999999999986
20
45.099094371284636
10
-53.999999999999986
20
25.099094371284636
0
LWPOLYLINE
5
147
100
AcDbEntity
8
0
100
AcDbPolyline
90
4
70
1
43
0.0
10
-53.999999999999986
20
45.099094371284636
10
-53.999999999999986
20
25.099094371284636
10
-61.999999999999993
20
25.099094371284636
10
-61.999999999999993
20
45.099094371284636
0
LWPOLYLINE
5
148
100
AcDbEntity
8
0
100
AcDbPolyline
90
2
70
1
43
0.0
10
-45.050000000000026
20
70.099094371284636
10
-54.95000000000001
20
70.099094371284636
0
LWPOLYLINE
5
149
100
AcDbEntity
8
0
100
AcDbPolyline
90
44
70
1
43
0.0
10
-65.050000000000011
20
70.099094371284636
10
-65.050000000000011
20
73.09909437128465
10
-54.95000000000001
20
73.09909437128465
10
-54.95000000000001
20
70.099094371284636
10
-45.050000000000026
20
70.099094371284636
10
-45.050000000000026
20
73.09909437128465
10
-34.95000000000001
20
73.09909437128465
10
-34.95000000000001
20
70.099094371284636
10
-25
20
70.099094371284636
10
-25
20
60.049094371284639
10
-28.000000000000007
20
60.049094371284639
10
-28.000000000000007
20
50.149094371284633
10
-25
20
50.149094371284633
10
-25
20
40.049094371284639
10
-28.000000000000007
20
40.049094371284639
10
-28.000000000000007
20
30.149094371284633
10
-25
20
30.149094371284633
10
-25
20
20.049094371284639
10
-28.000000000000007
20
20.049094371284639
10
-28.000000000000007
20
10.149094371284637
10
-25
20
10.149094371284637
10
-25
20
0.09909437128463594
10
-34.95000000000001
20
0.09909437128463594
10
-34.95000000000001
20
-2.9009056287153623
10
-45.050000000000026
20
-2.9009056287153645
10
-45.050000000000026
20
0.09909437128463594
10
-54.95000000000001
20
0.09909437128463594
10
-54.95000000000001
20
-2.9009056287153623
10
-65.050000000000011
20
-2.9009056287153645
10
-65.050000000000011
20
0.09909437128463594
10
-75
20
0.09909437128463594
10
-75
20
10.149094371284637
10
-72
20
10.149094371284637
10
-72
20
20.049094371284639
10
-75
20
20.049094371284639
10
-75
20
30.149094371284633
10
-72
20
30.149094371284633
10
-72
20
40.049094371284639
10
-75
20
40.049094371284639
10
-75
20
50.149094371284633
10
-72
20
50.149094371284633
10
-72
20
60.049094371284639
10
-75
20
60.049094371284639
10
-75
20
70.099094371284636
0
LINE
5
150
100
AcDbEntity
8
0
100
AcDbLine
10
-45.050000000000026
20
70.099094371284636
30
0
11
-54.95000000000001
21
70.099094371284636
31
0
0
LINE
5
151
100
AcDbEntity
8
0
100
AcDbLine
10
-54.95000000000001
20
70.099094371284636
30
0
11
-45.050000000000026
21
70.099094371284636
31
0
0
LINE
5
152
100
AcDbEntity
8
0
100
AcDbLine
10
-72
20
50.149094371284633
30
0
11
-72
21
60.049094371284639
31
0
0
LINE
5
153
100
AcDbEntity
8
0
100
AcDbLine
10
-75
20
40.049094371284639
30
0
11
-75
21
50.149094371284633
31
0
0
LINE
5
154
100
AcDbEntity
8
0
100
AcDbLine
10
-65.050000000000011
20
0.09909437128463594
30
0
11
-65.050000000000011
21
-2.9009056287153645
31
0
0
LINE
5
155
100
AcDbEntity
8
0
100
AcDbLine
10
-54.95000000000001
20
70.099094371284636
30
0
11
-45.050000000000026
21
70.099094371284636
31
0
0
LINE
5
156
100
AcDbEntity
8
0
100
AcDbLine
10
-45.050000000000026
20
0.09909437128463594
30
0
11
-45.050000000000026
21
-2.9009056287153645
31
0
0
LINE
5
157
100
AcDbEntity
8
0
100
AcDbLine
10
-75
20
50.149094371284633
30
0
11
-72
21
50.149094371284633
31
0
0
LINE
5
158
100
AcDbEntity
8
0
100
AcDbLine
10
-34.95000000000001
20
73.09909437128465
30
0
11
-34.95000000000001
21
70.099094371284636
31
0
0
LINE
5
159
100
AcDbEntity
8
0
100
AcDbLine
10
-65.050000000000011
20
70.099094371284636
30
0
11
-65.050000000000011
21
73.09909437128465
31
0
0
LINE
5
160
100
AcDbEntity
8
0
100
AcDbLine
10
-65.050000000000011
20
70.099094371284636
30
0
11
-75
21
70.099094371284636
31
0
0
LINE
5
161
100
AcDbEntity
8
0
100
AcDbLine
10
-75
20
0.09909437128463594
30
0
11
-65.050000000000011
21
0.09909437128463594
31
0
0
LINE
5
162
100
AcDbEntity
8
0
100
AcDbLine
10
-54.95000000000001
20
73.09909437128465
30
0
11
-54.95000000000001
21
70.099094371284636
31
0
0
LINE
5
163
100
AcDbEntity
8
0
100
AcDbLine
10
-72
20
40.049094371284639
30
0
11
-75
21
40.049094371284639
31
0
0
LINE
5
164
100
AcDbEntity
8
0
100
AcDbLine
10
-25
20
0.09909437128463594
30
0
11
-25
21
10.149094371284637
31
0
0
LINE
5
165
100
AcDbEntity
8
0
100
AcDbLine
10
-72
20
10.149094371284637
30
0
11
-72
21
20.049094371284639
31
0
0
LINE
5
166
100
AcDbEntity
8
0
100
AcDbLine
10
-25
20
70.099094371284636
30
0
11
-34.95000000000001
21
70.099094371284636
31
0
0
LINE
5
167
100
AcDbEntity
8
0
100
AcDbLine
10
-75
20
10.149094371284637
30
0
11
-72
21
10.149094371284637
31
0
0
LINE
5
168
100
AcDbEntity
8
0
100
AcDbLine
10
-25
20
10.149094371284637
30
0
11
-25
21
0.09909437128463594
31
0
0
LINE
5
169
100
AcDbEntity
8
0
100
AcDbLine
10
-25
20
0.09909437128463594
30
0
11
-25
21
10.149094371284637
31
0
0
LINE
5
170
100
AcDbEntity
8
0
100
AcDbLine
10
-25
20
10.149094371284637
30
0
11
-28.000000000000007
21
10.149094371284637
31
0
0
LINE
5
171
100
AcDbEntity
8
0
100
AcDbLine
10
-25
20
0.09909437128463594
30
0
11
-25
21
10.149094371284637
31
0
0
LINE
5
172
100
AcDbEntity
8
0
100
AcDbLine
10
-28.000000000000007
20
40.049094371284639
30
0
11
-25
21
40.049094371284639
31
0
0
LINE
5
173
100
AcDbEntity
8
0
100
AcDbLine
10
-25
20
70.099094371284636
30
0
11
-34.95000000000001
21
70.099094371284636
31
0
0
LINE
5
174
100
AcDbEntity
8
0
100
AcDbLine
10
-28.000000000000007
20
10.149094371284637
30
0
11
-28.000000000000007
21
20.049094371284639
31
0
0
LINE
5
175
100
AcDbEntity
8
0
100
AcDbLine
10
-34.95000000000001
20
70.099094371284636
30
0
11
-25
21
70.099094371284636
31
0
0
LINE
5
176
100
AcDbEntity
8
0
100
AcDbLine
10
-25
20
0.09909437128463594
30
0
11
-25
21
10.149094371284637
31
0
0
LINE
5
177
100
AcDbEntity
8
0
100
AcDbLine
10
-28.000000000000007
20
50.149094371284633
30
0
11
-28.000000000000007
21
60.049094371284639
31
0
0
LINE
5
178
100
AcDbEntity
8
0
100
AcDbLine
10
-28.000000000000007
20
60.049094371284639
30
0
11
-25
21
60.049094371284639
31
0
0
LINE
5
179
100
AcDbEntity
8
0
100
AcDbLine
10
-25
20
70.099094371284636
30
0
11
-34.95000000000001
21
70.099094371284636
31
0
0
LINE
5
180
100
AcDbEntity
8
0
100
AcDbLine
10
-25
20
50.149094371284633
30
0
11
-28.000000000000007
21
50.149094371284633
31
0
0
LINE
5
181
100
AcDbEntity
8
0
100
AcDbLine
10
-28.000000000000007
20
20.049094371284639
30
0
11
-25
21
20.049094371284639
31
0
0
LINE
5
182
100
AcDbEntity
8
0
100
AcDbLine
10
-75
20
0.09909437128463594
30
0
11
-75
21
10.149094371284637
31
0
0
LINE
5
183
100
AcDbEntity
8
0
100
AcDbLine
10
-25
20
70.099094371284636
30
0
11
-34.95000000000001
21
70.099094371284636
31
0
0
LINE
5
184
100
AcDbEntity
8
0
100
AcDbLine
10
-72
20
20.049094371284639
30
0
11
-75
21
20.049094371284639
31
0
0
LINE
5
185
100
AcDbEntity
8
0
100
AcDbLine
10
-25
20
0.09909437128463594
30
0
11
-34.95000000000001
21
0.09909437128463594
31
0
0
LINE
5
186
100
AcDbEntity
8
0
100
AcDbLine
10
-72
20
30.149094371284633
30
0
11
-72
21
40.049094371284639
31
0
0
LINE
5
187
100
AcDbEntity
8
0
100
AcDbLine
10
-25
20
30.149094371284633
30
0
11
-28.000000000000007
21
30.149094371284633
31
0
0
LINE
5
188
100
AcDbEntity
8
0
100
AcDbLine
10
-75
20
20.049094371284639
30
0
11
-75
21
30.149094371284633
31
0
0
LINE
5
189
100
AcDbEntity
8
0
100
AcDbLine
10
-28.000000000000007
20
30.149094371284633
30
0
11
-28.000000000000007
21
40.049094371284639
31
0
0
LINE
5
190
100
AcDbEntity
8
0
100
AcDbLine
10
-25
20
50.149094371284633
30
0
11
-25
21
40.049094371284639
31
0
0
LINE
5
191
100
AcDbEntity
8
0
100
AcDbLine
10
-75
20
30.149094371284633
30
0
11
-72
21
30.149094371284633
31
0
0
LINE
5
192
100
AcDbEntity
8
0
100
AcDbLine
10
-25
20
50.149094371284633
30
0
11
-25
21
40.049094371284639
31
0
0
LINE
5
193
100
AcDbEntity
8
0
100
AcDbLine
10
-25
20
60.049094371284639
30
0
11
-25
21
70.099094371284636
31
0
0
LINE
5
194
100
AcDbEntity
8
0
100
AcDbLine
10
-34.95000000000001
20
-2.9009056287153623
30
0
11
-34.95000000000001
21
0.09909437128463594
31
0
0
LWPOLYLINE
5
195
100
AcDbEntity
8
0
100
AcDbPolyline
90
2
70
1
43
0.0
10
-25
20
30.149094371284633
10
-25
20
20.049094371284639
0
LINE
5
196
100
AcDbEntity
8
0
100
AcDbLine
10
-75
20
60.049094371284639
30
0
11
-75
21
70.099094371284636
31
0
0
LINE
5
197
100
AcDbEntity
8
0
100
AcDbLine
10
-25
20
60.049094371284639
30
0
11
-25
21
70.099094371284636
31
0
0
LINE
5
198
100
AcDbEntity
8
0
100
AcDbLine
10
-25
20
30.149094371284633
30
0
11
-25
21
20.049094371284639
31
0
0
LINE
5
199
100
AcDbEntity
8
0
100
AcDbLine
10
-25
20
70.099094371284636
30
0
11
-25
21
60.049094371284639
31
0
0
LINE
5
200
100
AcDbEntity
8
0
100
AcDbLine
10
-45.050000000000026
20
0.09909437128463594
30
0
11
-54.95000000000001
21
0.09909437128463594
31
0
0
LWPOLYLINE
5
201
100
AcDbEntity
8
0
100
AcDbPolyline
90
2
70
1
43
0.0
10
-25
20
40.049094371284639
10
-25
20
50.149094371284633
0
LINE
5
202
100
AcDbEntity
8
0
100
AcDbLine
10
-45.050000000000026
20
-2.9009056287153645
30
0
11
-34.95000000000001
21
-2.9009056287153623
31
0
0
LINE
5
203
100
AcDbEntity
8
0
100
AcDbLine
10
-25
20
20.049094371284639
30
0
11
-25
21
30.149094371284633
31
0
0
LINE
5
204
100
AcDbEntity
8
0
100
AcDbLine
10
-25
20
60.049094371284639
30
0
11
-25
21
70.099094371284636
31
0
0
LINE
5
205
100
AcDbEntity
8
0
100
AcDbLine
10
-25
20
60.049094371284639
30
0
11
-25
21
70.099094371284636
31
0
0
LINE
5
206
100
AcDbEntity
8
0
100
AcDbLine
10
-25
20
20.049094371284639
30
0
11
-25
21
30.149094371284633
31
0
0
LINE
5
207
100
AcDbEntity
8
0
100
AcDbLine
10
-65.050000000000011
20
-2.9009056287153645
30
0
11
-54.95000000000001
21
-2.9009056287153623
31
0
0
LINE
5
208
100
AcDbEntity
8
0
100
AcDbLine
10
-25
20
50.149094371284633
30
0
11
-25
21
40.049094371284639
31
0
0
LINE
5
209
100
AcDbEntity
8
0
100
AcDbLine
10
-54.95000000000001
20
-2.9009056287153623
30
0
11
-54.95000000000001
21
0.09909437128463594
31
0
0
LINE
5
210
100
AcDbEntity
8
0
100
AcDbLine
10
-72
20
60.049094371284639
30
0
11
-75
21
60.049094371284639
31
0
0
LINE
5
211
100
AcDbEntity
8
0
100
AcDbLine
10
-75
20
70.099094371284636
30
0
11
-65.050000000000011
21
70.099094371284636
31
0
0
LINE
5
212
100
AcDbEntity
8
0
100
AcDbLine
10
-65.050000000000011
20
70.099094371284636
30
0
11
-75
21
70.099094371284636
31
0
0
LINE
5
213
100
AcDbEntity
8
0
100
AcDbLine
10
-45.050000000000026
20
70.099094371284636
30
0
11
-45.050000000000026
21
73.09909437128465
31
0
0
LINE
5
214
100
AcDbEntity
8
0
100
AcDbLine
10
-65.050000000000011
20
70.099094371284636
30
0
11
-75
21
70.099094371284636
31
0
0
LINE
5
215
100
AcDbEntity
8
0
100
AcDbLine
10
-45.050000000000026
20
73.09909437128465
30
0
11
-34.95000000000001
21
73.09909437128465
31
0
0
LINE
5
216
100
AcDbEntity
8
0
100
AcDbLine
10
-65.050000000000011
20
73.09909437128465
30
0
11
-54.95000000000001
21
73.09909437128465
31
0
0
LINE
5
217
100
AcDbEntity
8
0
100
AcDbLine
10
-65.050000000000011
20
70.099094371284636
30
0
11
-75
21
70.099094371284636
31
0
0
LWPOLYLINE
5
218
100
AcDbEntity
8
0
100
AcDbPolyline
90
68
70
1
43
0.0
10
-130.04999999999998
20
3.0000000000000004
10
-139.95000000000002
20
3.0000000000000062
10
-139.95000000000002
20
0
10
-150.04999999999998
20
0
10
-150.04999999999998
20
3.0000000000000004
10
-159.95000000000002
20
3.0000000000000062
10
-159.95000000000002
20
0
10
-170.04999999999998
20
-1.2215851821494847e-15
10
-170.04999999999998
20
2.9999999999999991
10
-179.95000000000002
20
3.0000000000000062
10
-179.95000000000002
20
0
10
-190
20
0
10
-190
20
3.0500000000000007
10
-187
20
3.0499997019767786
10
-187.00000000000006
20
12.950000000000001
10
-190
20
12.950000000000001
10
-190
20
23.050000000000001
10
-187
20
23.049999701976777
10
-187.00000000000006
20
32.950000000000003
10
-190
20
32.950000000000003
10
-190
20
43.049999999999997
10
-187
20
43.04999970197678
10
-187.00000000000006
20
52.950000000000003
10
-190
20
52.950000000000003
10
-190
20
63.049999999999997
10
-187
20
63.04999970197678
10
-187.00000000000006
20
72.950000000000003
10
-190
20
72.950000000000003
10
-190
20
76
10
-179.95000000000002
20
76
10
-179.95000000000002
20
73
10
-170.04999999999998
20
73
10
-170.04999999999998
20
76
10
-159.95000000000002
20
76
10
-159.95000000000002
20
73
10
-150.04999999999998
20
73
10
-150.04999999999998
20
76
10
-139.95000000000002
20
76
10
-139.95000000000002
20
73
10
-130.04999999999998
20
73
10
-130.04999999999998
20
76
10
-119.95000000000002
20
76
10
-119.95000000000002
20
73
10
-110.04999999999998
20
73
10
-110.04999999999998
20
76
10
-100.00000004470348
20
76
10
-100.00000004470348
20
72.950000000000003
10
-103.00000004470346
20
72.950000000000003
10
-103.00000004470346
20
63.04999970197678
10
-100.00000004470346
20
63.049999999999997
10
-100.00000004470348
20
52.950000000000003
10
-103.00000004470343
20
52.950000000000003
10
-103.00000004470346
20
43.04999970197678
10
-100.00000004470346
20
43.049999999999997
10
-100.00000004470348
20
32.950000000000003
10
-103.00000004470343
20
32.950000000000003
10
-103.00000004470346
20
23.049999701976777
10
-100.00000004470346
20
23.050000000000001
10
-100.00000004470348
20
12.950000000000001
10
-103.00000004470343
20
12.950000000000001
10
-103.00000004470346
20
3.0499997019767786
10
-100.00000004470348
20
3.0500000000000007
10
-100.00000004470348
20
0
10
-110.04999999999998
20
0
10
-110.04999999999998
20
3.0000000000000004
10
-119.95000000000002
20
3.0000000000000062
10
-119.95000000000002
20
0
10
-130.04999999999998
20
0
0
LWPOLYLINE
5
219
100
AcDbEntity
8
0
100
AcDbPolyline
90
4
70
1
43
0.0
10
-157
20
15.499999999999998
10
-177
20
15.499999999999998
10
-177
20
60.500000000000007
10
-157
20
60.500000000000007
0
LINE
5
220
100
AcDbEntity
8
0
100
AcDbLine
10
-190
20
23.050000000000001
30
0
11
-187
21
23.049999701976777
31
0
0
LINE
5
221
100
AcDbEntity
8
0
100
AcDbLine
10
-190
20
72.950000000000003
30
0
11
-187.00000000000006
21
72.950000000000003
31
0
0
LWPOLYLINE
5
222
100
AcDbEntity
8
0
100
AcDbPolyline
90
52
70
1
43
0.0
10
9.9500000000000011
20
-23.000000000000007
10
20.049999999999997
20
-22.999999999999865
10
20.049999999999997
20
-25.999999999999872
10
29.950000000000003
20
-26.000000000000014
10
29.950000000000003
20
-23.000000000000007
10
40.049999999999997
20
-22.999999999999865
10
40.049999999999997
20
-25.999999999999872
10
49.950000000000003
20
-26.000000000000014
10
49.950000000000003
20
-23.000000000000007
10
60.049999999999997
20
-22.999999999999865
10
60.049999999999997
20
-25.999999999999872
10
69.950000000000003
20
-26.000000000000014
10
69.950000000000003
20
-23.000000000000007
10
80.049999999999983
20
-22.999999999999865
10
80.049999999999983
20
-25.999999999999872
10
90
20
-25.999999999999996
10
90
20
-33.049999999999997
10
87
20
-33.049999999999997
10
87
20
-42.950000000000003
10
90
20
-42.950000000000003
10
90
20
-53.049999999999997
10
87
20
-53.049999999999997
10
87
20
-62.950000000000003
10
90
20
-62.950000000000003
10
90
20
-70
10
80.049999999999983
20
-70
10
80.049999999999983
20
-73
10
69.950000000000003
20
-73
10
69.950000000000003
20
-70
10
60.049999999999997
20
-70
10
60.049999999999997
20
-73
10
49.950000000000003
20
-73
10
49.950000000000003
20
-70
10
40.049999999999997
20
-70
10
40.049999999999997
20
-73
10
29.950000000000003
20
-73
10
29.950000000000003
20
-70
10
20.049999999999997
20
-70
10
20.049999999999997
20
-73
10
9.9499999999999993
20
-73
10
9.9499999999999993
20
-70
10
0
20
-70
10
0
20
-62.950000000000003
10
3.0000000000000004
20
-62.950000000000003
10
3.0000000000000004
20
-53.049999999999997
10
0
20
-53.049999999999997
10
0
20
-42.950000000000003
10
3.0000000000000004
20
-42.950000000000003
10
3.0000000000000004
20
-33.049999999999997
10
0
20
-33.049999999999997
10
0
20
-25.999999999999996
10
9.9499999999999993
20
-25.99999999999989
0
ENDSEC
0
SECTION
2
OBJECTS
0
DICTIONARY
5
C
100
AcDbDictionary
3
ACAD_GROUP
350
D
3
ACAD_MLINESTYLE
350
17
0
DICTIONARY
5
D
100
AcDbDictionary
0
DICTIONARY
5
1A
330
C
100
AcDbDictionary
0
DICTIONARY
5
17
100
AcDbDictionary
0
ENDSEC
0
EOF
